<svg width="963" height="883" viewBox="0 0 963 883" fill="none" xmlns="http://www.w3.org/2000/svg">
<rect x="169" y="754" width="124" height="129" rx="32" fill="black"/>
<rect x="670" y="754" width="124" height="129" rx="32" fill="black"/>
<path d="M33 245V185.822C33 172.133 48.7953 164.483 59.5351 172.971V172.971C62.4269 175.257 66.0051 176.5 69.691 176.5H103.5" stroke="black" stroke-width="10"/>
<rect y="244" width="68" height="139" rx="6" fill="black"/>
<path d="M929.5 245V185.822C929.5 172.133 913.705 164.483 902.965 172.971V172.971C900.073 175.257 896.495 176.5 892.809 176.5H859" stroke="black" stroke-width="10"/>
<rect width="68" height="139" rx="6" transform="matrix(-1 0 0 1 962.5 244)" fill="black"/>
<rect x="101" width="758" height="785" rx="95" fill="black"/>
<rect x="150" y="162" width="662" height="381" rx="51" fill="white" stroke="black" stroke-width="20"/>
<path d="M604.773 638.5C608.773 630.9 710.773 585.667 761.273 564C805.273 564 795.273 638.5 785.773 655C776.273 671.5 693.773 678.5 648.273 684C602.773 689.5 599.773 648 604.773 638.5Z" fill="white"/>
<path d="M358.2 638.5C354.2 630.9 252.2 585.667 201.7 564C157.7 564 167.7 638.5 177.2 655C186.7 671.5 269.2 678.5 314.7 684C360.2 689.5 363.2 648 358.2 638.5Z" fill="white"/>
<rect x="164" y="148" width="634" height="92" rx="8" fill="black" stroke="white" stroke-width="8"/>
<path d="M286.608 228.672C282.192 228.672 278.224 227.904 274.704 226.368C271.248 224.768 268.528 222.592 266.544 219.84C264.56 217.024 263.536 213.792 263.472 210.144H272.784C273.104 213.28 274.384 215.936 276.624 218.112C278.928 220.224 282.256 221.28 286.608 221.28C290.768 221.28 294.032 220.256 296.4 218.208C298.832 216.096 300.048 213.408 300.048 210.144C300.048 207.584 299.344 205.504 297.936 203.904C296.528 202.304 294.768 201.088 292.656 200.256C290.544 199.424 287.696 198.528 284.112 197.568C279.696 196.416 276.144 195.264 273.456 194.112C270.832 192.96 268.56 191.168 266.64 188.736C264.784 186.24 263.856 182.912 263.856 178.752C263.856 175.104 264.784 171.872 266.64 169.056C268.496 166.24 271.088 164.064 274.416 162.528C277.808 160.992 281.68 160.224 286.032 160.224C292.304 160.224 297.424 161.792 301.392 164.928C305.424 168.064 307.696 172.224 308.208 177.408H298.608C298.288 174.848 296.944 172.608 294.576 170.688C292.208 168.704 289.072 167.712 285.168 167.712C281.52 167.712 278.544 168.672 276.24 170.592C273.936 172.448 272.784 175.072 272.784 178.464C272.784 180.896 273.456 182.88 274.8 184.416C276.208 185.952 277.904 187.136 279.888 187.968C281.936 188.736 284.784 189.632 288.432 190.656C292.848 191.872 296.4 193.088 299.088 194.304C301.776 195.456 304.08 197.28 306 199.776C307.92 202.208 308.88 205.536 308.88 209.76C308.88 213.024 308.016 216.096 306.288 218.976C304.56 221.856 302 224.192 298.608 225.984C295.216 227.776 291.216 228.672 286.608 228.672ZM351.592 161.088V228H342.856V161.088H351.592ZM432.337 180.672C432.337 186.24 430.417 190.88 426.577 194.592C422.801 198.24 417.009 200.064 409.201 200.064H396.337V228H387.601V161.088H409.201C416.753 161.088 422.481 162.912 426.385 166.56C430.353 170.208 432.337 174.912 432.337 180.672ZM409.201 192.864C414.065 192.864 417.649 191.808 419.953 189.696C422.257 187.584 423.409 184.576 423.409 180.672C423.409 172.416 418.673 168.288 409.201 168.288H396.337V192.864H409.201ZM473.051 168.192V190.56H497.435V197.76H473.051V220.8H500.315V228H464.315V160.992H500.315V168.192H473.051ZM575.837 161.088V168.192H557.597V228H548.861V168.192H530.525V161.088H575.837ZM616.447 161.088V228H607.711V161.088H616.447ZM688.744 228L661.192 197.472V228H652.456V161.088H661.192V192.096L688.84 161.088H699.88L669.544 194.592L700.168 228H688.744Z" fill="white"/>
</svg>
